<svg width="40" height="40" viewBox="0 0 40 40" fill="none" xmlns="http://www.w3.org/2000/svg">
<g clip-path="url(#clip0_2_24)">
<path d="M19.9321 40C21.2475 40 22.5091 39.4732 23.4392 38.5355C24.3694 37.5979 24.8919 36.3261 24.8919 35H14.9723C14.9723 36.3261 15.4948 37.5979 16.425 38.5355C17.3551 39.4732 18.6167 40 19.9321 40ZM22.3996 2.74751C22.4342 2.39989 22.3962 2.04882 22.2879 1.71694C22.1797 1.38506 22.0036 1.07973 21.7712 0.820651C21.5387 0.561571 21.2549 0.354492 20.9381 0.212767C20.6214 0.0710417 20.2787 -0.00218201 19.9321 -0.00218201C19.5856 -0.00218201 19.2429 0.0710417 18.9261 0.212767C18.6093 0.354492 18.3256 0.561571 18.0931 0.820651C17.8606 1.07973 17.6845 1.38506 17.5763 1.71694C17.468 2.04882 17.43 2.39989 17.4646 2.74751C14.6616 3.32226 12.1418 4.85591 10.3318 7.08876C8.52183 9.32161 7.53293 12.1164 7.53257 15C7.53257 17.745 6.29262 30 2.57275 32.5H37.2915C33.5716 30 32.3317 17.745 32.3317 15C32.3317 8.95001 28.0662 3.90001 22.3996 2.74751Z" fill="url(#paint0_linear_2_24)"/>
</g>
<defs>
<linearGradient id="paint0_linear_2_24" x1="27.8678" y1="4" x2="7.81344" y2="32.3478" gradientUnits="userSpaceOnUse">
<stop stop-color="#2F3285"/>
<stop offset="1" stop-color="#1A94AF"/>
</linearGradient>
<clipPath id="clip0_2_24">
<rect width="39.6785" height="40" fill="white" transform="translate(0.0927734)"/>
</clipPath>
</defs>
</svg>
