<svg width="36" height="40" viewBox="0 0 36 40" fill="none" xmlns="http://www.w3.org/2000/svg">
<path d="M17.9321 40C19.2475 40 20.5091 39.4732 21.4392 38.5355C22.3694 37.5979 22.8919 36.3261 22.8919 35H12.9723C12.9723 36.3261 13.4948 37.5979 14.425 38.5355C15.3551 39.4732 16.6167 40 17.9321 40ZM20.3996 2.74751C20.4342 2.39989 20.3962 2.04882 20.2879 1.71694C20.1797 1.38506 20.0036 1.07973 19.7712 0.820651C19.5387 0.561571 19.2549 0.354492 18.9381 0.212767C18.6214 0.0710417 18.2787 -0.00218201 17.9321 -0.00218201C17.5856 -0.00218201 17.2429 0.0710417 16.9261 0.212767C16.6093 0.354492 16.3256 0.561571 16.0931 0.820651C15.8606 1.07973 15.6845 1.38506 15.5763 1.71694C15.468 2.04882 15.43 2.39989 15.4646 2.74751C12.6616 3.32226 10.1418 4.85591 8.3318 7.08876C6.52183 9.32161 5.53293 12.1164 5.53257 15C5.53257 17.745 4.29262 30 0.572754 32.5H35.2915C31.5716 30 30.3317 17.745 30.3317 15C30.3317 8.95001 26.0662 3.90001 20.3996 2.74751Z" fill="url(#paint0_linear_2_25)"/>
<defs>
<linearGradient id="paint0_linear_2_25" x1="25.8678" y1="4" x2="5.81344" y2="32.3478" gradientUnits="userSpaceOnUse">
<stop stop-color="#2F3285"/>
<stop offset="1" stop-color="#1A94AF"/>
</linearGradient>
</defs>
</svg>
