<svg width="30" height="30" viewBox="0 0 30 30" fill="none" xmlns="http://www.w3.org/2000/svg">
<path d="M4.8 21.2475L5.8125 18.2438H9.5325L10.545 21.2475H11.8913L8.3325 11.25H7.0275L3.46875 21.2475H4.8ZM7.695 12.7594L9.1875 17.2125H6.1575L7.6575 12.7594H7.695ZM18.4688 13.5506H17.2013V18.3188C17.2013 19.5413 16.425 20.2369 15.3188 20.2369C14.3081 20.2369 13.4813 19.7756 13.4813 18.3394V13.5506H12.2137V18.6994C12.2137 20.4638 13.35 21.3713 14.9381 21.3713C16.1681 21.3713 16.8937 20.8463 17.1656 20.2369H17.2163V21.2475H18.4688V13.5506ZM22.7025 23.0119C21.6469 23.0119 20.9963 22.4419 20.8556 21.8194H19.5675C19.7437 23.1 20.7394 24.0675 22.695 24.0675C24.4387 24.0675 25.9688 23.0794 25.9688 21.1088V13.5506H24.7519V14.6344H24.7162C24.3581 13.9819 23.5219 13.4344 22.4756 13.4344C20.6663 13.4344 19.4006 14.7075 19.4006 16.9706V17.6081C19.4006 19.9144 20.6812 21.1744 22.4756 21.1744C23.5219 21.1744 24.3656 20.625 24.6731 19.9594H24.7106V21.0938C24.7106 22.3031 23.9175 23.0119 22.7025 23.0119ZM22.7175 14.5181C23.9325 14.5181 24.7087 15.5063 24.7087 17.0663V17.5406C24.7087 19.1306 23.9775 20.0981 22.7175 20.0981C21.42 20.0981 20.6587 19.1381 20.6587 17.5406V17.0663C20.6587 15.4388 21.42 14.5163 22.7175 14.5163V14.5181Z" fill="white"/>
<path d="M6.5625 0C6.81114 0 7.0496 0.0987721 7.22541 0.274587C7.40123 0.450403 7.5 0.68886 7.5 0.9375V1.875H22.5V0.9375C22.5 0.68886 22.5988 0.450403 22.7746 0.274587C22.9504 0.0987721 23.1889 0 23.4375 0C23.6861 0 23.9246 0.0987721 24.1004 0.274587C24.2762 0.450403 24.375 0.68886 24.375 0.9375V1.875H26.25C27.2446 1.875 28.1984 2.27009 28.9016 2.97335C29.6049 3.67661 30 4.63044 30 5.625V26.25C30 27.2446 29.6049 28.1984 28.9016 28.9016C28.1984 29.6049 27.2446 30 26.25 30H3.75C2.75544 30 1.80161 29.6049 1.09835 28.9016C0.395088 28.1984 0 27.2446 0 26.25V5.625C0 4.63044 0.395088 3.67661 1.09835 2.97335C1.80161 2.27009 2.75544 1.875 3.75 1.875H5.625V0.9375C5.625 0.68886 5.72377 0.450403 5.89959 0.274587C6.0754 0.0987721 6.31386 0 6.5625 0V0ZM1.875 7.5V26.25C1.875 26.7473 2.07254 27.2242 2.42417 27.5758C2.77581 27.9275 3.25272 28.125 3.75 28.125H26.25C26.7473 28.125 27.2242 27.9275 27.5758 27.5758C27.9275 27.2242 28.125 26.7473 28.125 26.25V7.5H1.875Z" fill="white"/>
</svg>
