<svg width="30" height="30" viewBox="0 0 30 30" fill="none" xmlns="http://www.w3.org/2000/svg">
<g clip-path="url(#clip0_2_146)">
<path d="M14.9999 30.03C18.4095 30.032 21.7037 28.7951 24.2695 26.5496C26.8352 24.304 28.4977 21.2028 28.9476 17.823C29.3975 14.4431 28.6041 11.015 26.7151 8.17649C24.826 5.33799 21.9701 3.28248 18.6786 2.3925C18.7588 2.11323 18.773 1.81914 18.7201 1.53344C18.6672 1.24775 18.5486 0.978258 18.3737 0.746249C18.1987 0.514239 17.9723 0.326055 17.7122 0.196549C17.4521 0.0670418 17.1655 -0.00024412 16.8749 6.65507e-07H13.1249C12.8343 -0.00024412 12.5477 0.0670418 12.2876 0.196549C12.0275 0.326055 11.8011 0.514239 11.6261 0.746249C11.4512 0.978258 11.3326 1.24775 11.2797 1.53344C11.2268 1.81914 11.241 2.11323 11.3211 2.3925C8.02972 3.28248 5.17375 5.33799 3.28473 8.17649C1.3957 11.015 0.602301 14.4431 1.05218 17.823C1.50206 21.2028 3.16457 24.304 5.73031 26.5496C8.29606 28.7951 11.5903 30.032 14.9999 30.03ZM27.1874 15.9675C27.1874 19.1998 25.9034 22.2998 23.6178 24.5854C21.3322 26.871 18.2322 28.155 14.9999 28.155C11.7676 28.155 8.66763 26.871 6.38203 24.5854C4.09643 22.2998 2.8124 19.1998 2.8124 15.9675C2.8124 12.7352 4.09643 9.63523 6.38203 7.34964C8.66763 5.06404 11.7676 3.78 14.9999 3.78C18.2322 3.78 21.3322 5.06404 23.6178 7.34964C25.9034 9.63523 27.1874 12.7352 27.1874 15.9675Z" fill="white"/>
<path d="M13.0124 13.95L22.2936 8.64374L16.9874 17.925L7.70801 23.2312L13.0105 13.95H13.0124Z" fill="white"/>
</g>
<defs>
<clipPath id="clip0_2_146">
<rect width="30" height="30" fill="white"/>
</clipPath>
</defs>
</svg>
