<svg width="50" height="50" viewBox="0 0 50 50" fill="none" xmlns="http://www.w3.org/2000/svg">
<path d="M35.9375 18.8344C35.9375 19.2488 35.7729 19.6462 35.4799 19.9392C35.1868 20.2323 34.7894 20.3969 34.375 20.3969C33.9606 20.3969 33.5632 20.2323 33.2701 19.9392C32.9771 19.6462 32.8125 19.2488 32.8125 18.8344C32.8125 18.42 32.9771 18.0226 33.2701 17.7295C33.5632 17.4365 33.9606 17.2719 34.375 17.2719C34.7894 17.2719 35.1868 17.4365 35.4799 17.7295C35.7729 18.0226 35.9375 18.42 35.9375 18.8344ZM31.25 23.5219C31.6644 23.5219 32.0618 23.3573 32.3549 23.0642C32.6479 22.7712 32.8125 22.3738 32.8125 21.9594C32.8125 21.545 32.6479 21.1476 32.3549 20.8545C32.0618 20.5615 31.6644 20.3969 31.25 20.3969C30.8356 20.3969 30.4382 20.5615 30.1451 20.8545C29.8521 21.1476 29.6875 21.545 29.6875 21.9594C29.6875 22.3738 29.8521 22.7712 30.1451 23.0642C30.4382 23.3573 30.8356 23.5219 31.25 23.5219ZM39.0625 21.9594C39.0625 22.3738 38.8979 22.7712 38.6049 23.0642C38.3118 23.3573 37.9144 23.5219 37.5 23.5219C37.0856 23.5219 36.6882 23.3573 36.3951 23.0642C36.1021 22.7712 35.9375 22.3738 35.9375 21.9594C35.9375 21.545 36.1021 21.1476 36.3951 20.8545C36.6882 20.5615 37.0856 20.3969 37.5 20.3969C37.9144 20.3969 38.3118 20.5615 38.6049 20.8545C38.8979 21.1476 39.0625 21.545 39.0625 21.9594ZM34.375 26.6469C34.7894 26.6469 35.1868 26.4823 35.4799 26.1892C35.7729 25.8962 35.9375 25.4988 35.9375 25.0844C35.9375 24.67 35.7729 24.2726 35.4799 23.9795C35.1868 23.6865 34.7894 23.5219 34.375 23.5219C33.9606 23.5219 33.5632 23.6865 33.2701 23.9795C32.9771 24.2726 32.8125 24.67 32.8125 25.0844C32.8125 25.4988 32.9771 25.8962 33.2701 26.1892C33.5632 26.4823 33.9606 26.6469 34.375 26.6469ZM14.0625 17.2719H17.1875V20.3969H20.3125V23.5219H17.1875V26.6469H14.0625V23.5219H10.9375V20.3969H14.0625V17.2719Z" fill="white"/>
<path d="M9.53449 10.1875C9.48111 9.98907 9.4674 9.78207 9.49413 9.57834C9.52086 9.37461 9.58751 9.17816 9.69026 9.00022C9.79302 8.82228 9.92986 8.66636 10.093 8.54138C10.2561 8.4164 10.4422 8.32482 10.6407 8.27187L16.6782 6.65312C16.8858 6.59781 17.1025 6.58589 17.3149 6.6181C17.5273 6.65031 17.7307 6.72596 17.9125 6.84034C18.0944 6.95471 18.2506 7.10534 18.3716 7.28282C18.4926 7.46031 18.5757 7.66083 18.6157 7.87187C20.6626 7.625 22.8345 7.50625 25.0001 7.50625C27.2501 7.50625 29.5095 7.63437 31.6251 7.9C31.6616 7.68576 31.7425 7.48149 31.8624 7.30026C31.9824 7.11903 32.1388 6.96481 32.3217 6.84746C32.5047 6.73012 32.7101 6.65222 32.9248 6.61876C33.1395 6.5853 33.3589 6.597 33.5689 6.65312L39.6064 8.27187C39.8367 8.33354 40.0499 8.44713 40.2296 8.60393C40.4093 8.76073 40.5507 8.95658 40.643 9.17648C40.7354 9.39638 40.7761 9.63449 40.7622 9.87257C40.7482 10.1106 40.68 10.3424 40.5626 10.55C41.0001 10.8312 41.3939 11.1437 41.7282 11.4781C43.0032 12.7531 44.1657 14.7594 45.1501 17.0156C46.1501 19.3062 47.022 21.9875 47.6657 24.7219C48.3095 27.4562 48.7282 30.2844 48.8032 32.8656C48.8782 35.4156 48.6189 37.8719 47.7782 39.7719C47.3949 40.6249 46.7518 41.335 45.9409 41.8008C45.13 42.2666 44.1926 42.4643 43.2626 42.3656C41.2751 42.1562 39.7782 41.1344 38.5345 39.95C37.7689 39.225 36.9845 38.3062 36.2251 37.425C35.8314 36.9625 35.4439 36.5125 35.0751 36.1031C32.8001 33.5906 30.0845 31.3312 25.0001 31.3312C19.9157 31.3312 17.2001 33.5906 14.9251 36.1031C14.5532 36.5125 14.1689 36.9625 13.7751 37.425C13.0157 38.3062 12.2314 39.2219 11.4657 39.95C10.222 41.1375 8.72511 42.1562 6.73761 42.3656C5.80763 42.4643 4.87026 42.2666 4.05932 41.8008C3.24838 41.335 2.60534 40.6249 2.22199 39.7719C1.37824 37.8719 1.12199 35.4125 1.19386 32.8656C1.26886 30.2844 1.69386 27.4594 2.33449 24.7219C2.97824 21.9875 3.85324 19.3062 4.85011 17.0156C5.83449 14.7594 6.99699 12.7531 8.26886 11.4781C8.67739 11.0774 9.13154 10.7261 9.62199 10.4312C9.58602 10.3515 9.55675 10.269 9.53449 10.1844V10.1875ZM15.897 11.475C13.1564 12.0531 11.3064 12.8594 10.4814 13.6875C9.61886 14.55 8.64699 16.1344 7.71574 18.2656C6.7278 20.5831 5.94562 22.983 5.37824 25.4375C4.77885 27.9028 4.42401 30.4213 4.31886 32.9562C4.25011 35.3156 4.51261 37.2312 5.07824 38.5062C5.19407 38.7546 5.38473 38.9604 5.62347 39.0949C5.86221 39.2294 6.13707 39.2858 6.40949 39.2562C7.43136 39.15 8.31574 38.6344 9.31261 37.6875C9.97511 37.0562 10.5626 36.3656 11.2345 35.5812C11.6501 35.0937 12.097 34.5719 12.6095 34.0062C15.1907 31.1531 18.6814 28.2094 25.0001 28.2094C31.3189 28.2094 34.8095 31.1531 37.3907 34.0062C37.9032 34.5719 38.3501 35.0937 38.7657 35.5812C39.4345 36.3656 40.0251 37.0562 40.6876 37.6875C41.6814 38.6344 42.5657 39.15 43.5907 39.2594C43.8635 39.2887 44.1386 39.2319 44.3774 39.0968C44.6162 38.9617 44.8066 38.7552 44.922 38.5062C45.4845 37.2312 45.7501 35.3187 45.6814 32.9562C45.5762 30.4213 45.2213 27.9028 44.622 25.4375C44.0545 22.983 43.2724 20.5831 42.2845 18.2656C41.3532 16.1344 40.3782 14.5469 39.5189 13.6875C38.6939 12.8594 36.8439 12.0531 34.1032 11.475C31.447 10.9156 28.2376 10.6312 25.0001 10.6312C21.7626 10.6312 18.5532 10.9156 15.897 11.475Z" fill="white"/>
</svg>
