<svg width="30" height="30" viewBox="0 0 30 30" fill="none" xmlns="http://www.w3.org/2000/svg">
<path d="M15.0001 8.91376C14.2008 8.91376 13.4094 9.07118 12.671 9.37705C11.9325 9.68291 11.2616 10.1312 10.6964 10.6964C10.1313 11.2615 9.68297 11.9325 9.37711 12.6709C9.07124 13.4093 8.91382 14.2007 8.91382 15C8.91382 15.7993 9.07124 16.5907 9.37711 17.3291C9.68297 18.0675 10.1313 18.7385 10.6964 19.3036C11.2616 19.8688 11.9325 20.3171 12.671 20.623C13.4094 20.9288 14.2008 21.0863 15.0001 21.0863C16.6142 21.0863 18.1623 20.445 19.3037 19.3036C20.4451 18.1622 21.0863 16.6142 21.0863 15C21.0863 13.3858 20.4451 11.8378 19.3037 10.6964C18.1623 9.55499 16.6142 8.91376 15.0001 8.91376ZM10.7888 15C10.7888 13.8831 11.2325 12.812 12.0223 12.0222C12.812 11.2324 13.8832 10.7888 15.0001 10.7888C16.117 10.7888 17.1881 11.2324 17.9779 12.0222C18.7676 12.812 19.2113 13.8831 19.2113 15C19.2113 16.1169 18.7676 17.188 17.9779 17.9778C17.1881 18.7676 16.117 19.2113 15.0001 19.2113C13.8832 19.2113 12.812 18.7676 12.0223 17.9778C11.2325 17.188 10.7888 16.1169 10.7888 15Z" fill="white"/>
<path d="M18.3675 2.5181C17.3794 -0.838147 12.6207 -0.838147 11.6325 2.5181L11.4563 3.11623C11.3873 3.35051 11.2667 3.56639 11.1034 3.74802C10.9402 3.92966 10.7383 4.07246 10.5127 4.16595C10.287 4.25944 10.0433 4.30125 9.79945 4.28832C9.55556 4.27539 9.31765 4.20805 9.10316 4.09123L8.55566 3.79123C5.48066 2.11873 2.11879 5.48248 3.79316 8.5556L4.09129 9.1031C4.20811 9.31759 4.27545 9.5555 4.28838 9.79939C4.30131 10.0433 4.2595 10.287 4.16601 10.5126C4.07252 10.7383 3.92972 10.9401 3.74809 11.1034C3.56645 11.2667 3.35057 11.3872 3.11629 11.4562L2.51816 11.6325C-0.838086 12.6206 -0.838086 17.3794 2.51816 18.3675L3.11629 18.5437C3.35057 18.6127 3.56645 18.7333 3.74809 18.8966C3.92972 19.0598 4.07252 19.2617 4.16601 19.4873C4.2595 19.713 4.30131 19.9567 4.28838 20.2006C4.27545 20.4445 4.20811 20.6824 4.09129 20.8969L3.79129 21.4444C2.11879 24.5194 5.48066 27.8831 8.55566 26.2069L9.10316 25.9087C9.31765 25.7919 9.55556 25.7246 9.79945 25.7116C10.0433 25.6987 10.287 25.7405 10.5127 25.834C10.7383 25.9275 10.9402 26.0703 11.1034 26.2519C11.2667 26.4336 11.3873 26.6494 11.4563 26.8837L11.6325 27.4818C12.6207 30.8381 17.3794 30.8381 18.3675 27.4818L18.5438 26.8837C18.6128 26.6494 18.7334 26.4336 18.8966 26.2519C19.0599 26.0703 19.2618 25.9275 19.4874 25.834C19.713 25.7405 19.9567 25.6987 20.2006 25.7116C20.4445 25.7246 20.6824 25.7919 20.8969 25.9087L21.4444 26.2087C24.5194 27.8831 27.8832 24.5175 26.2069 21.4444L25.9088 20.8969C25.792 20.6824 25.7246 20.4445 25.7117 20.2006C25.6988 19.9567 25.7406 19.713 25.8341 19.4873C25.9276 19.2617 26.0704 19.0598 26.252 18.8966C26.4336 18.7333 26.6495 18.6127 26.8838 18.5437L27.4819 18.3675C30.8382 17.3794 30.8382 12.6206 27.4819 11.6325L26.8838 11.4562C26.6495 11.3872 26.4336 11.2667 26.252 11.1034C26.0704 10.9401 25.9276 10.7383 25.8341 10.5126C25.7406 10.287 25.6988 10.0433 25.7117 9.79939C25.7246 9.5555 25.792 9.31759 25.9088 9.1031L26.2088 8.5556C27.8832 5.4806 24.5175 2.11873 21.4444 3.7931L20.8969 4.09123C20.6824 4.20805 20.4445 4.27539 20.2006 4.28832C19.9567 4.30125 19.713 4.25944 19.4874 4.16595C19.2618 4.07246 19.0599 3.92966 18.8966 3.74802C18.7334 3.56639 18.6128 3.35051 18.5438 3.11623L18.3675 2.5181ZM13.4307 3.04873C13.8919 1.4831 16.1082 1.4831 16.5694 3.04873L16.7457 3.64685C16.8938 4.14951 17.1526 4.61264 17.503 5.00229C17.8534 5.39194 18.2866 5.69822 18.7708 5.89869C19.255 6.09916 19.7779 6.18873 20.3012 6.16083C20.8245 6.13294 21.3349 5.98828 21.795 5.73748L22.3407 5.43748C23.7732 4.65935 25.3407 6.22498 24.5607 7.65935L24.2625 8.20685C24.0121 8.66703 23.8678 9.1774 23.8402 9.70058C23.8126 10.2238 23.9024 10.7465 24.1031 11.2304C24.3037 11.7144 24.6101 12.1474 24.9997 12.4976C25.3894 12.8478 25.8525 13.1063 26.355 13.2544L26.9513 13.4306C28.5169 13.8919 28.5169 16.1081 26.9513 16.5694L26.3532 16.7456C25.8505 16.8938 25.3874 17.1525 24.9977 17.503C24.6081 17.8534 24.3018 18.2866 24.1013 18.7707C23.9009 19.2549 23.8113 19.7778 23.8392 20.3011C23.8671 20.8244 24.0117 21.3349 24.2625 21.795L24.5625 22.3406C25.3407 23.7731 23.775 25.3406 22.3407 24.5606L21.795 24.2625C21.3348 24.0117 20.8242 23.8671 20.3008 23.8393C19.7774 23.8116 19.2545 23.9013 18.7703 24.1019C18.286 24.3026 17.8529 24.6091 17.5026 24.999C17.1522 25.3888 16.8936 25.8522 16.7457 26.355L16.5694 26.9512C16.1082 28.5168 13.8919 28.5168 13.4307 26.9512L13.2544 26.3531C13.1062 25.8507 12.8474 25.3878 12.4972 24.9984C12.1469 24.6089 11.7139 24.3028 11.23 24.1023C10.746 23.9019 10.2234 23.8122 9.70029 23.8399C9.17722 23.8677 8.66696 24.012 8.20691 24.2625L7.65941 24.5625C6.22691 25.3406 4.65941 23.775 5.43941 22.3406L5.73754 21.795C5.9887 21.3348 6.13363 20.8242 6.16171 20.3007C6.18979 19.7771 6.1003 19.254 5.89981 18.7696C5.69931 18.2851 5.3929 17.8517 5.00306 17.5012C4.61322 17.1506 4.14984 16.8918 3.64691 16.7437L3.04879 16.5675C1.48316 16.1062 1.48316 13.89 3.04879 13.4287L3.64691 13.2525C4.14905 13.1042 4.61167 12.8455 5.00093 12.4953C5.39019 12.1452 5.69622 11.7124 5.89664 11.2287C6.09706 10.745 6.18678 10.2226 6.15926 9.69976C6.13173 9.17691 5.98764 8.66683 5.73754 8.20685L5.43754 7.65935C4.65941 6.22685 6.22504 4.65935 7.65941 5.43935L8.20691 5.73748C8.66696 5.98793 9.17722 6.1323 9.70029 6.16001C10.2234 6.18773 10.746 6.09808 11.23 5.89763C11.7139 5.69719 12.1469 5.39103 12.4972 5.00158C12.8474 4.61213 13.1062 4.14925 13.2544 3.64685L13.4307 3.04873Z" fill="white"/>
</svg>
