<svg width="30" height="30" viewBox="0 0 30 30" fill="none" xmlns="http://www.w3.org/2000/svg">
<g clip-path="url(#clip0_2_165)">
<path d="M15 5.15253L13.6557 3.77066C10.5 0.526905 4.7138 1.64628 2.62505 5.72441C1.64442 7.64253 1.42317 10.4119 3.2138 13.9463C4.9388 17.3494 8.52755 21.4257 15 25.8657C21.4725 21.4257 25.0594 17.3494 26.7863 13.9463C28.5769 10.41 28.3575 7.64253 27.375 5.72441C25.2863 1.64628 19.5 0.52503 16.3444 3.76878L15 5.15253ZM15 28.125C-13.7493 9.12753 6.14817 -5.69997 14.67 2.14316C14.7825 2.24628 14.8932 2.35316 15 2.46378C15.1058 2.35326 15.2159 2.24692 15.33 2.14503C23.85 -5.70372 43.7494 9.12566 15 28.125Z" fill="white"/>
</g>
<defs>
<clipPath id="clip0_2_165">
<rect width="30" height="30" fill="white"/>
</clipPath>
</defs>
</svg>
