<svg width="30" height="30" viewBox="0 0 30 30" fill="none" xmlns="http://www.w3.org/2000/svg">
<path fill-rule="evenodd" clip-rule="evenodd" d="M3.75 25.3125V13.125H5.625V25.3125C5.625 25.5611 5.72377 25.7996 5.89959 25.9754C6.0754 26.1512 6.31386 26.25 6.5625 26.25H23.4375C23.6861 26.25 23.9246 26.1512 24.1004 25.9754C24.2762 25.7996 24.375 25.5611 24.375 25.3125V13.125H26.25V25.3125C26.25 26.0584 25.9537 26.7738 25.4262 27.3012C24.8988 27.8287 24.1834 28.125 23.4375 28.125H6.5625C5.81658 28.125 5.10121 27.8287 4.57376 27.3012C4.04632 26.7738 3.75 26.0584 3.75 25.3125ZM24.375 4.6875V11.25L20.625 7.5V4.6875C20.625 4.43886 20.7238 4.2004 20.8996 4.02459C21.0754 3.84877 21.3139 3.75 21.5625 3.75H23.4375C23.6861 3.75 23.9246 3.84877 24.1004 4.02459C24.2762 4.2004 24.375 4.43886 24.375 4.6875Z" fill="white"/>
<path fill-rule="evenodd" clip-rule="evenodd" d="M13.6743 2.81249C14.026 2.46099 14.5028 2.26352 15 2.26352C15.4971 2.26352 15.974 2.46099 16.3256 2.81249L28.7887 15.2737C28.9648 15.4498 29.0636 15.6885 29.0636 15.9375C29.0636 16.1864 28.9648 16.4252 28.7887 16.6012C28.6127 16.7773 28.3739 16.8762 28.125 16.8762C27.876 16.8762 27.6373 16.7773 27.4612 16.6012L15 4.13812L2.53871 16.6012C2.36268 16.7773 2.12392 16.8762 1.87496 16.8762C1.62601 16.8762 1.38725 16.7773 1.21121 16.6012C1.03518 16.4252 0.936279 16.1864 0.936279 15.9375C0.936279 15.6885 1.03518 15.4498 1.21121 15.2737L13.6743 2.81249Z" fill="white"/>
</svg>
