<svg width="30" height="30" viewBox="0 0 30 30" fill="none" xmlns="http://www.w3.org/2000/svg">
<g clip-path="url(#clip0_2_161)">
<path d="M5.37367 27.8438C5.22742 28.6763 6.04867 29.3269 6.77242 28.9556L15.0037 24.7256L23.233 28.9556C23.9568 29.3269 24.778 28.6763 24.6318 27.8456L23.0755 18.9769L29.6793 12.6844C30.298 12.0956 29.9793 11.0194 29.1505 10.9031L19.9668 9.59813L15.8718 1.48501C15.7938 1.32055 15.6707 1.1816 15.5169 1.08431C15.363 0.987012 15.1848 0.935364 15.0027 0.935364C14.8207 0.935364 14.6424 0.987012 14.4886 1.08431C14.3347 1.1816 14.2117 1.32055 14.1337 1.48501L10.0387 9.60001L0.854917 10.905C0.0280416 11.0213 -0.292583 12.0975 0.324292 12.6863L6.92992 18.9788L5.37367 27.8475V27.8438ZM14.5705 22.6556L7.65929 26.2069L8.96054 18.7875C8.99102 18.6167 8.9791 18.4411 8.92581 18.276C8.87252 18.1109 8.7795 17.9614 8.65492 17.8406L3.20617 12.6469L10.8037 11.5669C10.961 11.5431 11.1102 11.4816 11.2385 11.3875C11.3669 11.2935 11.4705 11.1697 11.5405 11.0269L14.9999 4.16813L18.463 11.0269C18.5331 11.1697 18.6367 11.2935 18.765 11.3875C18.8934 11.4816 19.0426 11.5431 19.1999 11.5669L26.7974 12.645L21.3487 17.8388C21.2238 17.9597 21.1306 18.1095 21.0773 18.2749C21.024 18.4404 21.0122 18.6164 21.043 18.7875L22.3443 26.2069L15.433 22.6556C15.2994 22.5867 15.1512 22.5508 15.0009 22.5508C14.8505 22.5508 14.7023 22.5867 14.5687 22.6556H14.5705Z" fill="white"/>
</g>
<defs>
<clipPath id="clip0_2_161">
<rect width="30" height="30" fill="white"/>
</clipPath>
</defs>
</svg>
